# xmcd
#
# Track frame offsets:
#	150
#	13624
#	29152
#	44757
#	58629
#	71680
#	84223
#	96303
#	110755
#	129147
#	142771
#	162028
#	175079
#	189660
#
# Disc length: 2689 seconds
#
# Revision: 0
# Processed by: cddbd v1.5.2PL0 Copyright (c) Steve Scherf et al.
# Submitted via: EasyCDDAExtractor 11.1.0.1
#
DISCID=bb0a7f0e
DTITLE=Various Artist - Mr music country
DYEAR=2010
DGENRE=country
TTITLE0=Price Porter - Somewhere in Texas
TTITLE1=Gary P Nunn - The likes of me
TTITLE2=T.Jay Christian - The more he drinks
TTITLE3=Teri Joyce - Austin Texas U.S.A.
TTITLE4=Sonny Burgess - When in Texas
TTITLE5=Joe Paul Nichols - Bandera waltz
TTITLE6=Jake Hooker - Night coach out of Dallas
TTITLE7=Durwood Haddock - Stay away from Dallas
TTITLE8=Brian Burns - Rattlesnake tequila
TTITLE9=Tommy Alverson - Cowboy mardi gras
TTITLE10=Kacey Jones - Collector of people
TTITLE11=Steve Maynard - Heartbreak bigger than Texas
TTITLE12=Ashley Allison - A tall drink of water
TTITLE13=David Ball - Houston again
EXTD=
EXTT0=
EXTT1=
EXTT2=
EXTT3=
EXTT4=
EXTT5=
EXTT6=
EXTT7=
EXTT8=
EXTT9=
EXTT10=
EXTT11=
EXTT12=
EXTT13=
PLAYORDER=
